<?xml version="1.0" encoding="UTF-8" standalone="no"?>
<svg
   xmlns:dc="http://purl.org/dc/elements/1.1/"
   xmlns:cc="http://creativecommons.org/ns#"
   xmlns:rdf="http://www.w3.org/1999/02/22-rdf-syntax-ns#"
   xmlns:svg="http://www.w3.org/2000/svg"
   xmlns="http://www.w3.org/2000/svg"
   viewBox="0 0 1322.84 1322.84"
   height="1322.84"
   width="1322.84"
   xml:space="preserve"
   id="svg2"
   version="1.1"><metadata
     id="metadata8"><rdf:RDF><cc:Work
         rdf:about=""><dc:format>image/svg+xml</dc:format><dc:type
           rdf:resource="http://purl.org/dc/dcmitype/StillImage" /></cc:Work></rdf:RDF></metadata><defs
     id="defs6" /><g
     transform="matrix(1.3333333,0,0,-1.3333333,0,1322.84)"
     id="g10"><g
       transform="scale(0.1)"
       id="g12"><path
         id="path14"
         style="fill:#ffffff;fill-opacity:1;fill-rule:nonzero;stroke:none"
         d="m 6884.39,4489.6 c -25.35,0 -50.93,-5.04 -80.55,-10.84 l -11.31,-2.28 c -60.07,-12 -160.65,-32.06 -319.98,-32.06 -412.4,0 -461,69.99 -473.9,392.5 h 788.27 c 181.89,0 262.98,71.46 262.98,231.71 0,340.78 -71.54,793.76 -690.28,793.76 -522.55,0 -755.6,-283.57 -755.6,-919.54 0,-620.85 217.04,-851.73 800.85,-851.73 242.74,0 434.89,37.35 510.23,71.84 47.87,20.37 92.19,50.94 92.19,136.09 v 61.98 c 0,80.5 -45.97,128.57 -122.9,128.57 z M 5012.42,6681.51 h -242.78 c -44.41,0 -179.39,0 -179.39,-134.24 v -107.46 c 0,-42.05 18.57,-139.8 190.55,-139.8 h 40.9 V 4298.82 c 0,-114.32 26.21,-185.14 156.81,-185.14 h 79.18 c 133.35,0 151.32,93.6 151.32,185.14 v 2101.47 c 0,105.2 0,281.22 -196.59,281.22 z m -720.84,-864.4 h -95.96 c -105.53,0 -141.14,-65.86 -167,-179.56 L 3760.6,4472.71 h -46.06 c -98.72,-3.56 -143.41,10.04 -175.54,138.14 l -271.28,1028.21 -2.93,11.31 c -20.59,78.16 -43.89,166.74 -152.12,166.74 h -101.63 c -92.6,0 -145.66,-50.99 -145.66,-139.85 0,-48.94 13.04,-121.34 41.18,-228.07 l 288.2,-1027.54 c 53.6,-201.27 167.64,-291.01 369.9,-291.01 h 124.87 c -16.49,-86.08 -37.08,-184.07 -49.7,-223.34 -50.53,-157.17 -126.47,-185.9 -257.83,-185.9 -115.93,0 -191.29,8.88 -246.4,15.37 l -4.62,0.55 c -32.33,3.69 -57.85,6.6 -82.29,6.6 -77.02,0 -122.96,-48.09 -122.96,-128.66 v -67.73 c 0,-84.94 43.98,-115.39 91.12,-135.47 70.95,-32.21 159.13,-49.65 421.66,-49.65 268.94,0 468.49,144.61 533.78,386.8 111.96,415.86 410.94,1670.39 423.71,1723.85 1.42,5.67 35.48,139.23 35.48,204.2 0,83.65 -56.27,139.85 -139.9,139.85 z M 7937.01,7661.05 V 2260.46 c 0,-147.36 -127.49,-276.17 -267.37,-276.17 H 2263.75 c -151.87,0 -279.5,128.81 -279.5,276.17 v 5400.59 c 0,153.2 127.63,275.99 279.5,275.99 h 5405.89 c 139.88,0 267.37,-122.79 267.37,-275.99" /><path
         id="path16"
         style="fill:#ffffff;fill-opacity:1;fill-rule:nonzero;stroke:none"
         d="m 6000.7,5154.42 c 15.01,276.63 128.18,400.3 365.01,400.39 0.12,0 0.17,0 0.26,0 225.18,0 326.5,-119.77 336.92,-399.76 l -702.19,-0.63" /></g></g></svg>