<svg data-name="Layer 1" xmlns="http://www.w3.org/2000/svg" viewBox="0 0 512 512"><path d="M429.28 414.15h-95.16c-24.73 0-43.6 4.69-58.44 11.4V325.7H330V180.5c1.35-.06 2.7-.12 4.13-.12h95.16zm-342.36 0V180.38h95.16c1.44 0 2.78.07 4.16.12v192.79a92.74 92.74 0 0 0 10 41.42c-4.5-.36-9.19-.56-14.15-.56zm134.47-40.7a49 49 0 0 1 19.14-37.93V415l-5.22-5.22c-8-8-13.51-21.87-13.92-34.89zm0-239.08A47.64 47.64 0 0 1 269 86.78h25.86v203.77H269A81.29 81.29 0 0 0 221.39 306zm112.73 10.85c-1.42 0-2.76.09-4.13.13V51.63H269a82.84 82.84 0 0 0-82.74 82.74v11c-1.39-.05-2.73-.14-4.16-.14H51.77v304.06h130.31c34.44 0 52.51 10.95 66.09 23l8.38 8.38.19-.19 1.36 1.36c15.18-15.18 32.58-32.59 76-32.59h130.34V145.22z" fill="#fff"/></svg>