<svg data-name="Layer 1" xmlns="http://www.w3.org/2000/svg" viewBox="0 0 512 512"><path d="M457.42 159c-15.42-15.41-28.23-19.33-38.53-22.48a69.89 69.89 0 0 1-12.33-4.62l28.35-28.35-29.7-29.7-195 195a96.83 96.83 0 1 0 29 30.44l95.12-95.11c10.06 7.07 18.78 9.73 26.2 12 9 2.75 15.48 4.74 25.25 14.51L397 242l22.63-22.62-11.32-11.28c-15.42-15.41-28.23-19.33-38.53-22.48a69.89 69.89 0 0 1-12.33-4.62l25.89-25.89c10.06 7.07 18.78 9.74 26.19 12 9 2.75 15.48 4.74 25.26 14.51l11.31 11.31 22.63-22.62zM194.87 388.21A54.95 54.95 0 1 1 211 349.35a54.6 54.6 0 0 1-16.13 38.86z" fill="#fff"/></svg>