<?xml version="1.0" encoding="UTF-8" standalone="yes"?><svg xmlns="http://www.w3.org/2000/svg" xmlns:xlink="http://www.w3.org/1999/xlink" height="1265px" style="width:896px;height:1265px;" version="1.1" viewBox="0 0 896 1265" width="896px"><defs><filter height="300%" id="f1" width="300%" x="-1" y="-1"><feGaussianBlur result="blurOut" stdDeviation="2.0"/><feColorMatrix in="blurOut" result="blurOut2" type="matrix" values="0 0 0 0 0 0 0 0 0 0 0 0 0 0 0 0 0 0 .4 0"/><feOffset dx="4.0" dy="4.0" in="blurOut2" result="blurOut3"/><feBlend in="SourceGraphic" in2="blurOut3" mode="normal"/></filter></defs><g><rect fill="#FFFFFF" filter="url(#f1)" height="50.1328" style="stroke: #A80036; stroke-width: 1.0;" width="10" x="266.5" y="96.2969"/><rect fill="#FFFFFF" filter="url(#f1)" height="522.8594" style="stroke: #A80036; stroke-width: 1.0;" width="10" x="266.5" y="723.4219"/><rect fill="#FFFFFF" filter="url(#f1)" height="468.7266" style="stroke: #A80036; stroke-width: 1.0;" width="10" x="420.5" y="200.5625"/><rect fill="#FFFFFF" filter="url(#f1)" height="68.2656" style="stroke: #A80036; stroke-width: 1.0;" width="10" x="420.5" y="816.6875"/><rect fill="#FFFFFF" filter="url(#f1)" height="165.6641" style="stroke: #A80036; stroke-width: 1.0;" width="10" x="515.5" y="342.0938"/><rect fill="#FFFFFF" filter="url(#f1)" height="68.2656" style="stroke: #A80036; stroke-width: 1.0;" width="10" x="611.5" y="968.2188"/><rect fill="#FFFFFF" filter="url(#f1)" height="68.2656" style="stroke: #A80036; stroke-width: 1.0;" width="10" x="727.5" y="1148.8828"/><rect fill="#DDDDDD" height="1254.4141" style="stroke: #A80036; stroke-width: 1.0;" width="188" x="369.5" y="4"/><text fill="#000000" font-family="sans-serif" font-size="13" font-weight="bold" lengthAdjust="spacingAndGlyphs" textLength="107" x="410" y="16.0669">Authentication</text><line style="stroke: #A80036; stroke-width: 1.0; stroke-dasharray: 5.0,5.0;" x1="39" x2="39" y1="86.2969" y2="1264.4141"/><line style="stroke: #A80036; stroke-width: 1.0; stroke-dasharray: 5.0,5.0;" x1="271.5" x2="271.5" y1="86.2969" y2="1264.4141"/><line style="stroke: #A80036; stroke-width: 1.0; stroke-dasharray: 5.0,5.0;" x1="425.5" x2="425.5" y1="86.2969" y2="1264.4141"/><line style="stroke: #A80036; stroke-width: 1.0; stroke-dasharray: 5.0,5.0;" x1="520.5" x2="520.5" y1="86.2969" y2="1264.4141"/><line style="stroke: #A80036; stroke-width: 1.0; stroke-dasharray: 5.0,5.0;" x1="616.5" x2="616.5" y1="86.2969" y2="1264.4141"/><line style="stroke: #A80036; stroke-width: 1.0; stroke-dasharray: 5.0,5.0;" x1="732.5" x2="732.5" y1="86.2969" y2="1264.4141"/><text fill="#000000" font-family="sans-serif" font-size="14" lengthAdjust="spacingAndGlyphs" textLength="57" x="8" y="82.9951">Browser</text><ellipse cx="39.5" cy="13" fill="#F5A3C7" filter="url(#f1)" rx="8" ry="8" style="stroke: #F5A3C7; stroke-width: 2.0;"/><path d="M39.5,21 L39.5,48 M26.5,29 L52.5,29 M39.5,48 L26.5,63 M39.5,48 L52.5,63 " fill="#F5A3C7" filter="url(#f1)" style="stroke: #F5A3C7; stroke-width: 2.0;"/><rect fill="#9FC9EB" filter="url(#f1)" height="46.5938" style="stroke: #9FC9EB; stroke-width: 1.5;" width="88" x="225.5" y="34.7031"/><text fill="#000000" font-family="sans-serif" font-size="14" lengthAdjust="spacingAndGlyphs" textLength="13" x="263" y="54.6982">UI</text><text fill="#000000" font-family="sans-serif" font-size="14" lengthAdjust="spacingAndGlyphs" textLength="74" x="232.5" y="70.9951">(Javascript)</text><rect fill="#9FC9EB" filter="url(#f1)" height="46.5938" style="stroke: #9FC9EB; stroke-width: 1.5;" width="100" x="373.5" y="34.7031"/><text fill="#000000" font-family="sans-serif" font-size="14" lengthAdjust="spacingAndGlyphs" textLength="82" x="382.5" y="54.6982">Tunnistamo</text><text fill="#000000" font-family="sans-serif" font-size="14" font-style="italic" lengthAdjust="spacingAndGlyphs" textLength="86" x="380.5" y="70.9951">api.hel.fi/sso</text><rect fill="#9FC9EB" filter="url(#f1)" height="46.5938" style="stroke: #9FC9EB; stroke-width: 1.5;" width="62" x="487.5" y="34.7031"/><text fill="#000000" font-family="sans-serif" font-size="14" lengthAdjust="spacingAndGlyphs" textLength="37" x="500" y="54.6982">ADFS</text><text fill="#000000" font-family="sans-serif" font-size="14" font-style="italic" lengthAdjust="spacingAndGlyphs" textLength="48" x="494.5" y="70.9951">fs.hel.fi</text><rect fill="#9FC9EB" filter="url(#f1)" height="30.2969" style="stroke: #9FC9EB; stroke-width: 1.5;" width="102" x="563.5" y="51"/><text fill="#000000" font-family="sans-serif" font-size="14" lengthAdjust="spacingAndGlyphs" textLength="88" x="570.5" y="70.9951">Service 1 API</text><rect fill="#9FC9EB" filter="url(#f1)" height="30.2969" style="stroke: #9FC9EB; stroke-width: 1.5;" width="102" x="679.5" y="51"/><text fill="#000000" font-family="sans-serif" font-size="14" lengthAdjust="spacingAndGlyphs" textLength="88" x="686.5" y="70.9951">Service 2 API</text><rect fill="#FFFFFF" filter="url(#f1)" height="50.1328" style="stroke: #A80036; stroke-width: 1.0;" width="10" x="266.5" y="96.2969"/><rect fill="#FFFFFF" filter="url(#f1)" height="522.8594" style="stroke: #A80036; stroke-width: 1.0;" width="10" x="266.5" y="723.4219"/><rect fill="#FFFFFF" filter="url(#f1)" height="468.7266" style="stroke: #A80036; stroke-width: 1.0;" width="10" x="420.5" y="200.5625"/><rect fill="#FFFFFF" filter="url(#f1)" height="68.2656" style="stroke: #A80036; stroke-width: 1.0;" width="10" x="420.5" y="816.6875"/><rect fill="#FFFFFF" filter="url(#f1)" height="165.6641" style="stroke: #A80036; stroke-width: 1.0;" width="10" x="515.5" y="342.0938"/><rect fill="#FFFFFF" filter="url(#f1)" height="68.2656" style="stroke: #A80036; stroke-width: 1.0;" width="10" x="611.5" y="968.2188"/><rect fill="#FFFFFF" filter="url(#f1)" height="68.2656" style="stroke: #A80036; stroke-width: 1.0;" width="10" x="727.5" y="1148.8828"/><line style="stroke: #BD2719; stroke-width: 1.0;" x1="264.5" x2="254.5" y1="117.2969" y2="113.2969"/><line style="stroke: #BD2719; stroke-width: 1.0;" x1="264.5" x2="254.5" y1="117.2969" y2="121.2969"/><line style="stroke: #BD2719; stroke-width: 1.0;" x1="39.5" x2="265.5" y1="117.2969" y2="117.2969"/><text fill="#000000" font-family="sans-serif" font-size="13" lengthAdjust="spacingAndGlyphs" textLength="63" x="46.5" y="112.3638">Click login</text><line style="stroke: #BD2719; stroke-width: 1.0;" x1="39.5" x2="49.5" y1="146.4297" y2="142.4297"/><line style="stroke: #BD2719; stroke-width: 1.0;" x1="39.5" x2="49.5" y1="146.4297" y2="150.4297"/><line style="stroke: #BD2719; stroke-width: 1.0;" x1="39.5" x2="270.5" y1="146.4297" y2="146.4297"/><text fill="#000000" font-family="sans-serif" font-size="13" lengthAdjust="spacingAndGlyphs" textLength="69" x="56.5" y="141.4966">Redirect to</text><text fill="#000000" font-family="sans-serif" font-size="13" font-weight="bold" lengthAdjust="spacingAndGlyphs" textLength="126" x="129.5" y="141.4966">Tunnistamo/login</text><line style="stroke: #BD2719; stroke-width: 1.0;" x1="418.5" x2="408.5" y1="200.5625" y2="196.5625"/><line style="stroke: #BD2719; stroke-width: 1.0;" x1="418.5" x2="408.5" y1="200.5625" y2="204.5625"/><line style="stroke: #BD2719; stroke-width: 1.0;" x1="39.5" x2="419.5" y1="200.5625" y2="200.5625"/><text fill="#000000" font-family="sans-serif" font-size="13" lengthAdjust="spacingAndGlyphs" textLength="83" x="46.5" y="195.6294">Want to login</text><line style="stroke: #BD2719; stroke-width: 1.0;" x1="39.5" x2="49.5" y1="229.6953" y2="225.6953"/><line style="stroke: #BD2719; stroke-width: 1.0;" x1="39.5" x2="49.5" y1="229.6953" y2="233.6953"/><line style="stroke: #BD2719; stroke-width: 1.0;" x1="39.5" x2="419.5" y1="229.6953" y2="229.6953"/><text fill="#000000" font-family="sans-serif" font-size="13" lengthAdjust="spacingAndGlyphs" textLength="183" x="56.5" y="224.7622">Show login method selection</text><line style="stroke: #BD2719; stroke-width: 1.0;" x1="418.5" x2="408.5" y1="258.8281" y2="254.8281"/><line style="stroke: #BD2719; stroke-width: 1.0;" x1="418.5" x2="408.5" y1="258.8281" y2="262.8281"/><line style="stroke: #BD2719; stroke-width: 1.0;" x1="39.5" x2="419.5" y1="258.8281" y2="258.8281"/><text fill="#000000" font-family="sans-serif" font-size="13" lengthAdjust="spacingAndGlyphs" textLength="68" x="46.5" y="253.895">Click ADFS</text><line style="stroke: #BD2719; stroke-width: 1.0;" x1="39.5" x2="49.5" y1="287.9609" y2="283.9609"/><line style="stroke: #BD2719; stroke-width: 1.0;" x1="39.5" x2="49.5" y1="287.9609" y2="291.9609"/><line style="stroke: #BD2719; stroke-width: 1.0;" x1="39.5" x2="419.5" y1="287.9609" y2="287.9609"/><text fill="#000000" font-family="sans-serif" font-size="13" lengthAdjust="spacingAndGlyphs" textLength="69" x="56.5" y="283.0278">Redirect to</text><text fill="#000000" font-family="sans-serif" font-size="13" font-weight="bold" lengthAdjust="spacingAndGlyphs" textLength="80" x="129.5" y="283.0278">ADFS/login</text><line style="stroke: #BD2719; stroke-width: 1.0;" x1="513.5" x2="503.5" y1="342.0938" y2="338.0938"/><line style="stroke: #BD2719; stroke-width: 1.0;" x1="513.5" x2="503.5" y1="342.0938" y2="346.0938"/><line style="stroke: #BD2719; stroke-width: 1.0;" x1="39.5" x2="514.5" y1="342.0938" y2="342.0938"/><text fill="#000000" font-family="sans-serif" font-size="13" lengthAdjust="spacingAndGlyphs" textLength="83" x="46.5" y="337.1606">Want to login</text><line style="stroke: #BD2719; stroke-width: 1.0;" x1="39.5" x2="49.5" y1="371.2266" y2="367.2266"/><line style="stroke: #BD2719; stroke-width: 1.0;" x1="39.5" x2="49.5" y1="371.2266" y2="375.2266"/><line style="stroke: #BD2719; stroke-width: 1.0;" x1="39.5" x2="514.5" y1="371.2266" y2="371.2266"/><text fill="#000000" font-family="sans-serif" font-size="13" lengthAdjust="spacingAndGlyphs" textLength="141" x="56.5" y="366.2935">Show ADFS login form</text><line style="stroke: #BD2719; stroke-width: 1.0;" x1="513.5" x2="503.5" y1="400.3594" y2="396.3594"/><line style="stroke: #BD2719; stroke-width: 1.0;" x1="513.5" x2="503.5" y1="400.3594" y2="404.3594"/><line style="stroke: #BD2719; stroke-width: 1.0;" x1="39.5" x2="514.5" y1="400.3594" y2="400.3594"/><text fill="#000000" font-family="sans-serif" font-size="13" lengthAdjust="spacingAndGlyphs" textLength="204" x="46.5" y="395.4263">Supply username and password</text><polygon fill="#FFE977" filter="url(#f1)" points="445,413.4922,445,438.4922,592,438.4922,592,423.4922,582,413.4922,445,413.4922" style="stroke: #FFE977; stroke-width: 1.0;"/><line style="stroke: #FFE977; stroke-width: 1.0;" x1="582" x2="582" y1="413.4922" y2="423.4922"/><line style="stroke: #FFE977; stroke-width: 1.0;" x1="592" x2="582" y1="423.4922" y2="423.4922"/><text fill="#000000" font-family="sans-serif" font-size="13" lengthAdjust="spacingAndGlyphs" textLength="126" x="451" y="430.5591">Validate credentials</text><polygon fill="#FFE977" filter="url(#f1)" points="437,452.625,437,477.625,599,477.625,599,462.625,589,452.625,437,452.625" style="stroke: #FFE977; stroke-width: 1.0;"/><line style="stroke: #FFE977; stroke-width: 1.0;" x1="589" x2="589" y1="452.625" y2="462.625"/><line style="stroke: #FFE977; stroke-width: 1.0;" x1="599" x2="589" y1="462.625" y2="462.625"/><text fill="#000000" font-family="sans-serif" font-size="13" lengthAdjust="spacingAndGlyphs" textLength="60" x="443" y="469.6919">Generate</text><text fill="#000000" font-family="sans-serif" font-size="13" font-style="italic" lengthAdjust="spacingAndGlyphs" textLength="77" x="507" y="469.6919">ADFS Token</text><line style="stroke: #BD2719; stroke-width: 1.0;" x1="39.5" x2="49.5" y1="507.7578" y2="503.7578"/><line style="stroke: #BD2719; stroke-width: 1.0;" x1="39.5" x2="49.5" y1="507.7578" y2="511.7578"/><line style="stroke: #BD2719; stroke-width: 1.0;" x1="39.5" x2="519.5" y1="507.7578" y2="507.7578"/><text fill="#000000" font-family="sans-serif" font-size="13" lengthAdjust="spacingAndGlyphs" textLength="69" x="56.5" y="502.8247">Redirect to</text><text fill="#000000" font-family="sans-serif" font-size="13" font-weight="bold" lengthAdjust="spacingAndGlyphs" textLength="151" x="129.5" y="502.8247">Tunnistamo/callback</text><text fill="#000000" font-family="sans-serif" font-size="13" lengthAdjust="spacingAndGlyphs" textLength="116" x="284.5" y="502.8247">(with ADFS Token)</text><line style="stroke: #BD2719; stroke-width: 1.0;" x1="418.5" x2="408.5" y1="561.8906" y2="557.8906"/><line style="stroke: #BD2719; stroke-width: 1.0;" x1="418.5" x2="408.5" y1="561.8906" y2="565.8906"/><line style="stroke: #BD2719; stroke-width: 1.0;" x1="39.5" x2="419.5" y1="561.8906" y2="561.8906"/><text fill="#000000" font-family="sans-serif" font-size="13" lengthAdjust="spacingAndGlyphs" textLength="30" x="46.5" y="556.9575">Pass</text><text fill="#000000" font-family="sans-serif" font-size="13" font-style="italic" lengthAdjust="spacingAndGlyphs" textLength="77" x="80.5" y="556.9575">ADFS Token</text><polygon fill="#FFE977" filter="url(#f1)" points="346,575.0234,346,600.0234,500,600.0234,500,585.0234,490,575.0234,346,575.0234" style="stroke: #FFE977; stroke-width: 1.0;"/><line style="stroke: #FFE977; stroke-width: 1.0;" x1="490" x2="490" y1="575.0234" y2="585.0234"/><line style="stroke: #FFE977; stroke-width: 1.0;" x1="500" x2="490" y1="585.0234" y2="585.0234"/><text fill="#000000" font-family="sans-serif" font-size="13" lengthAdjust="spacingAndGlyphs" textLength="52" x="352" y="592.0903">Validate</text><text fill="#000000" font-family="sans-serif" font-size="13" font-style="italic" lengthAdjust="spacingAndGlyphs" textLength="77" x="408" y="592.0903">ADFS Token</text><polygon fill="#FFE977" filter="url(#f1)" points="276,614.1563,276,639.1563,571,639.1563,571,624.1563,561,614.1563,276,614.1563" style="stroke: #FFE977; stroke-width: 1.0;"/><line style="stroke: #FFE977; stroke-width: 1.0;" x1="561" x2="561" y1="614.1563" y2="624.1563"/><line style="stroke: #FFE977; stroke-width: 1.0;" x1="571" x2="561" y1="624.1563" y2="624.1563"/><text fill="#000000" font-family="sans-serif" font-size="13" lengthAdjust="spacingAndGlyphs" textLength="60" x="282" y="631.2231">Generate</text><text fill="#000000" font-family="sans-serif" font-size="13" font-style="italic" lengthAdjust="spacingAndGlyphs" textLength="55" x="346" y="631.2231">ID Token</text><text fill="#000000" font-family="sans-serif" font-size="13" lengthAdjust="spacingAndGlyphs" textLength="24" x="405" y="631.2231">and</text><text fill="#000000" font-family="sans-serif" font-size="13" font-style="italic" lengthAdjust="spacingAndGlyphs" textLength="85" x="433" y="631.2231">Access token</text><text fill="#000000" font-family="sans-serif" font-size="13" lengthAdjust="spacingAndGlyphs" textLength="34" x="522" y="631.2231">for UI</text><line style="stroke: #BD2719; stroke-width: 1.0;" x1="39.5" x2="49.5" y1="669.2891" y2="665.2891"/><line style="stroke: #BD2719; stroke-width: 1.0;" x1="39.5" x2="49.5" y1="669.2891" y2="673.2891"/><line style="stroke: #BD2719; stroke-width: 1.0;" x1="39.5" x2="424.5" y1="669.2891" y2="669.2891"/><text fill="#000000" font-family="sans-serif" font-size="13" lengthAdjust="spacingAndGlyphs" textLength="69" x="56.5" y="664.356">Redirect to</text><text fill="#000000" font-family="sans-serif" font-size="13" font-weight="bold" lengthAdjust="spacingAndGlyphs" textLength="80" x="129.5" y="664.356">UI/callback</text><line style="stroke: #BD2719; stroke-width: 1.0;" x1="264.5" x2="254.5" y1="723.4219" y2="719.4219"/><line style="stroke: #BD2719; stroke-width: 1.0;" x1="264.5" x2="254.5" y1="723.4219" y2="727.4219"/><line style="stroke: #BD2719; stroke-width: 1.0;" x1="39.5" x2="265.5" y1="723.4219" y2="723.4219"/><text fill="#000000" font-family="sans-serif" font-size="13" lengthAdjust="spacingAndGlyphs" textLength="30" x="46.5" y="718.4888">Pass</text><text fill="#000000" font-family="sans-serif" font-size="13" font-style="italic" lengthAdjust="spacingAndGlyphs" textLength="55" x="80.5" y="718.4888">ID Token</text><text fill="#000000" font-family="sans-serif" font-size="13" lengthAdjust="spacingAndGlyphs" textLength="24" x="139.5" y="718.4888">and</text><text fill="#000000" font-family="sans-serif" font-size="13" font-style="italic" lengthAdjust="spacingAndGlyphs" textLength="87" x="167.5" y="718.4888">Access Token</text><polygon fill="#FFE977" filter="url(#f1)" points="116,736.5547,116,761.5547,423,761.5547,423,746.5547,413,736.5547,116,736.5547" style="stroke: #FFE977; stroke-width: 1.0;"/><line style="stroke: #FFE977; stroke-width: 1.0;" x1="413" x2="413" y1="736.5547" y2="746.5547"/><line style="stroke: #FFE977; stroke-width: 1.0;" x1="423" x2="413" y1="746.5547" y2="746.5547"/><text fill="#000000" font-family="sans-serif" font-size="13" lengthAdjust="spacingAndGlyphs" textLength="52" x="122" y="753.6216">Validate</text><text fill="#000000" font-family="sans-serif" font-size="13" font-style="italic" lengthAdjust="spacingAndGlyphs" textLength="55" x="178" y="753.6216">ID Token</text><text fill="#000000" font-family="sans-serif" font-size="13" lengthAdjust="spacingAndGlyphs" textLength="171" x="237" y="753.6216">with Tunnistamo public key</text><line style="stroke: #BD2719; stroke-width: 1.0;" x1="418.5" x2="408.5" y1="816.6875" y2="812.6875"/><line style="stroke: #BD2719; stroke-width: 1.0;" x1="418.5" x2="408.5" y1="816.6875" y2="820.6875"/><line style="stroke: #BD2719; stroke-width: 1.0;" x1="276.5" x2="419.5" y1="816.6875" y2="816.6875"/><text fill="#000000" font-family="sans-serif" font-size="13" lengthAdjust="spacingAndGlyphs" textLength="52" x="283.5" y="811.7544">Request</text><text fill="#000000" font-family="sans-serif" font-size="13" font-style="italic" lengthAdjust="spacingAndGlyphs" textLength="69" x="339.5" y="811.7544">API Tokens</text><polygon fill="#FFE977" filter="url(#f1)" points="346,829.8203,346,854.8203,500,854.8203,500,839.8203,490,829.8203,346,829.8203" style="stroke: #FFE977; stroke-width: 1.0;"/><line style="stroke: #FFE977; stroke-width: 1.0;" x1="490" x2="490" y1="829.8203" y2="839.8203"/><line style="stroke: #FFE977; stroke-width: 1.0;" x1="500" x2="490" y1="839.8203" y2="839.8203"/><text fill="#000000" font-family="sans-serif" font-size="13" lengthAdjust="spacingAndGlyphs" textLength="60" x="352" y="846.8872">Generate</text><text fill="#000000" font-family="sans-serif" font-size="13" font-style="italic" lengthAdjust="spacingAndGlyphs" textLength="69" x="416" y="846.8872">API Tokens</text><line style="stroke: #BD2719; stroke-width: 1.0;" x1="276.5" x2="286.5" y1="884.9531" y2="880.9531"/><line style="stroke: #BD2719; stroke-width: 1.0;" x1="276.5" x2="286.5" y1="884.9531" y2="888.9531"/><line style="stroke: #BD2719; stroke-width: 1.0;" x1="276.5" x2="424.5" y1="884.9531" y2="884.9531"/><text fill="#000000" font-family="sans-serif" font-size="13" lengthAdjust="spacingAndGlyphs" textLength="30" x="293.5" y="880.02">Pass</text><text fill="#000000" font-family="sans-serif" font-size="13" font-style="italic" lengthAdjust="spacingAndGlyphs" textLength="69" x="327.5" y="880.02">API Tokens</text><line style="stroke: #BD2719; stroke-width: 1.0;" x1="39.5" x2="49.5" y1="939.0859" y2="935.0859"/><line style="stroke: #BD2719; stroke-width: 1.0;" x1="39.5" x2="49.5" y1="939.0859" y2="943.0859"/><line style="stroke: #BD2719; stroke-width: 1.0;" x1="39.5" x2="265.5" y1="939.0859" y2="939.0859"/><text fill="#000000" font-family="sans-serif" font-size="13" lengthAdjust="spacingAndGlyphs" textLength="167" x="56.5" y="934.1528">Make request to Service 1</text><line style="stroke: #BD2719; stroke-width: 1.0;" x1="609.5" x2="599.5" y1="968.2188" y2="964.2188"/><line style="stroke: #BD2719; stroke-width: 1.0;" x1="609.5" x2="599.5" y1="968.2188" y2="972.2188"/><line style="stroke: #BD2719; stroke-width: 1.0;" x1="39.5" x2="610.5" y1="968.2188" y2="968.2188"/><text fill="#000000" font-family="sans-serif" font-size="13" lengthAdjust="spacingAndGlyphs" textLength="242" x="46.5" y="963.2856">Make authenticated API request using</text><text fill="#000000" font-family="sans-serif" font-size="13" font-style="italic" lengthAdjust="spacingAndGlyphs" textLength="74" x="292.5" y="963.2856">API Token 1</text><polygon fill="#FFE977" filter="url(#f1)" points="457,981.3516,457,1006.3516,771,1006.3516,771,991.3516,761,981.3516,457,981.3516" style="stroke: #FFE977; stroke-width: 1.0;"/><line style="stroke: #FFE977; stroke-width: 1.0;" x1="761" x2="761" y1="981.3516" y2="991.3516"/><line style="stroke: #FFE977; stroke-width: 1.0;" x1="771" x2="761" y1="991.3516" y2="991.3516"/><text fill="#000000" font-family="sans-serif" font-size="13" lengthAdjust="spacingAndGlyphs" textLength="52" x="463" y="998.4185">Validate</text><text fill="#000000" font-family="sans-serif" font-size="13" font-style="italic" lengthAdjust="spacingAndGlyphs" textLength="62" x="519" y="998.4185">API Token</text><text fill="#000000" font-family="sans-serif" font-size="13" lengthAdjust="spacingAndGlyphs" textLength="171" x="585" y="998.4185">with Tunnistamo public key</text><line style="stroke: #BD2719; stroke-width: 1.0;" x1="39.5" x2="49.5" y1="1036.4844" y2="1032.4844"/><line style="stroke: #BD2719; stroke-width: 1.0;" x1="39.5" x2="49.5" y1="1036.4844" y2="1040.4844"/><line style="stroke: #BD2719; stroke-width: 1.0;" x1="39.5" x2="615.5" y1="1036.4844" y2="1036.4844"/><text fill="#000000" font-family="sans-serif" font-size="13" lengthAdjust="spacingAndGlyphs" textLength="55" x="56.5" y="1031.5513">API reply</text><line style="stroke: #BD2719; stroke-width: 1.0;" x1="264.5" x2="254.5" y1="1065.6172" y2="1061.6172"/><line style="stroke: #BD2719; stroke-width: 1.0;" x1="264.5" x2="254.5" y1="1065.6172" y2="1069.6172"/><line style="stroke: #BD2719; stroke-width: 1.0;" x1="39.5" x2="265.5" y1="1065.6172" y2="1065.6172"/><text fill="#000000" font-family="sans-serif" font-size="13" lengthAdjust="spacingAndGlyphs" textLength="65" x="46.5" y="1060.6841">Pass reply</text><line style="stroke: #BD2719; stroke-width: 1.0;" x1="39.5" x2="49.5" y1="1119.75" y2="1115.75"/><line style="stroke: #BD2719; stroke-width: 1.0;" x1="39.5" x2="49.5" y1="1119.75" y2="1123.75"/><line style="stroke: #BD2719; stroke-width: 1.0;" x1="39.5" x2="265.5" y1="1119.75" y2="1119.75"/><text fill="#000000" font-family="sans-serif" font-size="13" lengthAdjust="spacingAndGlyphs" textLength="167" x="56.5" y="1114.8169">Make request to Service 2</text><line style="stroke: #BD2719; stroke-width: 1.0;" x1="725.5" x2="715.5" y1="1148.8828" y2="1144.8828"/><line style="stroke: #BD2719; stroke-width: 1.0;" x1="725.5" x2="715.5" y1="1148.8828" y2="1152.8828"/><line style="stroke: #BD2719; stroke-width: 1.0;" x1="39.5" x2="726.5" y1="1148.8828" y2="1148.8828"/><text fill="#000000" font-family="sans-serif" font-size="13" lengthAdjust="spacingAndGlyphs" textLength="242" x="46.5" y="1143.9497">Make authenticated API request using</text><text fill="#000000" font-family="sans-serif" font-size="13" font-style="italic" lengthAdjust="spacingAndGlyphs" textLength="74" x="292.5" y="1143.9497">API Token 2</text><polygon fill="#FFE977" filter="url(#f1)" points="573,1162.0156,573,1187.0156,887,1187.0156,887,1172.0156,877,1162.0156,573,1162.0156" style="stroke: #FFE977; stroke-width: 1.0;"/><line style="stroke: #FFE977; stroke-width: 1.0;" x1="877" x2="877" y1="1162.0156" y2="1172.0156"/><line style="stroke: #FFE977; stroke-width: 1.0;" x1="887" x2="877" y1="1172.0156" y2="1172.0156"/><text fill="#000000" font-family="sans-serif" font-size="13" lengthAdjust="spacingAndGlyphs" textLength="52" x="579" y="1179.0825">Validate</text><text fill="#000000" font-family="sans-serif" font-size="13" font-style="italic" lengthAdjust="spacingAndGlyphs" textLength="62" x="635" y="1179.0825">API Token</text><text fill="#000000" font-family="sans-serif" font-size="13" lengthAdjust="spacingAndGlyphs" textLength="171" x="701" y="1179.0825">with Tunnistamo public key</text><line style="stroke: #BD2719; stroke-width: 1.0;" x1="39.5" x2="49.5" y1="1217.1484" y2="1213.1484"/><line style="stroke: #BD2719; stroke-width: 1.0;" x1="39.5" x2="49.5" y1="1217.1484" y2="1221.1484"/><line style="stroke: #BD2719; stroke-width: 1.0;" x1="39.5" x2="731.5" y1="1217.1484" y2="1217.1484"/><text fill="#000000" font-family="sans-serif" font-size="13" lengthAdjust="spacingAndGlyphs" textLength="55" x="56.5" y="1212.2153">API reply</text><line style="stroke: #BD2719; stroke-width: 1.0;" x1="269.5" x2="259.5" y1="1246.2813" y2="1242.2813"/><line style="stroke: #BD2719; stroke-width: 1.0;" x1="269.5" x2="259.5" y1="1246.2813" y2="1250.2813"/><line style="stroke: #BD2719; stroke-width: 1.0;" x1="39.5" x2="270.5" y1="1246.2813" y2="1246.2813"/><text fill="#000000" font-family="sans-serif" font-size="13" lengthAdjust="spacingAndGlyphs" textLength="65" x="46.5" y="1241.3481">Pass reply</text></g></svg>