<?xml version="1.0" encoding="UTF-8" standalone="yes"?><svg xmlns="http://www.w3.org/2000/svg" xmlns:xlink="http://www.w3.org/1999/xlink" height="1079px" style="width:773px;height:1079px;" version="1.1" viewBox="0 0 773 1079" width="773px"><defs><filter height="300%" id="f1" width="300%" x="-1" y="-1"><feGaussianBlur result="blurOut" stdDeviation="2.0"/><feColorMatrix in="blurOut" result="blurOut2" type="matrix" values="0 0 0 0 0 0 0 0 0 0 0 0 0 0 0 0 0 0 .4 0"/><feOffset dx="4.0" dy="4.0" in="blurOut2" result="blurOut3"/><feBlend in="SourceGraphic" in2="blurOut3" mode="normal"/></filter></defs><g><rect fill="#FFFFFF" filter="url(#f1)" height="50.1328" style="stroke: #A80036; stroke-width: 1.0;" width="10" x="279" y="96.2969"/><rect fill="#FFFFFF" filter="url(#f1)" height="322.1953" style="stroke: #A80036; stroke-width: 1.0;" width="10" x="279" y="738.5547"/><rect fill="#FFFFFF" filter="url(#f1)" height="483.8594" style="stroke: #A80036; stroke-width: 1.0;" width="10" x="391" y="200.5625"/><rect fill="#FFFFFF" filter="url(#f1)" height="165.6641" style="stroke: #A80036; stroke-width: 1.0;" width="10" x="489" y="342.0938"/><rect fill="#FFFFFF" filter="url(#f1)" height="58.2656" style="stroke: #A80036; stroke-width: 1.0;" width="10" x="588.5" y="831.8203"/><rect fill="#FFFFFF" filter="url(#f1)" height="58.2656" style="stroke: #A80036; stroke-width: 1.0;" width="10" x="708.5" y="973.3516"/><rect fill="#DDDDDD" height="1068.8828" style="stroke: #A80036; stroke-width: 1.0;" width="194" x="338.5" y="4"/><text fill="#000000" font-family="sans-serif" font-size="13" font-weight="bold" lengthAdjust="spacingAndGlyphs" textLength="107" x="382" y="16.0669">Authentication</text><line style="stroke: #A80036; stroke-width: 1.0; stroke-dasharray: 5.0,5.0;" x1="40" x2="40" y1="86.2969" y2="1078.8828"/><line style="stroke: #A80036; stroke-width: 1.0; stroke-dasharray: 5.0,5.0;" x1="283.5" x2="283.5" y1="86.2969" y2="1078.8828"/><line style="stroke: #A80036; stroke-width: 1.0; stroke-dasharray: 5.0,5.0;" x1="395.5" x2="395.5" y1="86.2969" y2="1078.8828"/><line style="stroke: #A80036; stroke-width: 1.0; stroke-dasharray: 5.0,5.0;" x1="493.5" x2="493.5" y1="86.2969" y2="1078.8828"/><line style="stroke: #A80036; stroke-width: 1.0; stroke-dasharray: 5.0,5.0;" x1="593.5" x2="593.5" y1="86.2969" y2="1078.8828"/><line style="stroke: #A80036; stroke-width: 1.0; stroke-dasharray: 5.0,5.0;" x1="713.5" x2="713.5" y1="86.2969" y2="1078.8828"/><text fill="#000000" font-family="sans-serif" font-size="14" lengthAdjust="spacingAndGlyphs" textLength="58" x="8" y="82.9951">Browser</text><ellipse cx="40" cy="13" fill="#F5A3C7" filter="url(#f1)" rx="8" ry="8" style="stroke: #F5A3C7; stroke-width: 2.0;"/><path d="M40,21 L40,48 M27,29 L53,29 M40,48 L27,63 M40,48 L53,63 " fill="#F5A3C7" filter="url(#f1)" style="stroke: #F5A3C7; stroke-width: 2.0;"/><rect fill="#9FC9EB" filter="url(#f1)" height="46.5938" style="stroke: #9FC9EB; stroke-width: 1.5;" width="93" x="235.5" y="34.7031"/><text fill="#000000" font-family="sans-serif" font-size="14" lengthAdjust="spacingAndGlyphs" textLength="14" x="275" y="54.6982">UI</text><text fill="#000000" font-family="sans-serif" font-size="14" lengthAdjust="spacingAndGlyphs" textLength="79" x="242.5" y="70.9951">(Javascript)</text><rect fill="#9FC9EB" filter="url(#f1)" height="46.5938" style="stroke: #9FC9EB; stroke-width: 1.5;" width="103" x="342.5" y="34.7031"/><text fill="#000000" font-family="sans-serif" font-size="14" lengthAdjust="spacingAndGlyphs" textLength="84" x="352" y="54.6982">Tunnistamo</text><text fill="#000000" font-family="sans-serif" font-size="14" font-style="italic" lengthAdjust="spacingAndGlyphs" textLength="89" x="349.5" y="70.9951">api.hel.fi/sso</text><rect fill="#9FC9EB" filter="url(#f1)" height="46.5938" style="stroke: #9FC9EB; stroke-width: 1.5;" width="65" x="459.5" y="34.7031"/><text fill="#000000" font-family="sans-serif" font-size="14" lengthAdjust="spacingAndGlyphs" textLength="38" x="473" y="54.6982">ADFS</text><text fill="#000000" font-family="sans-serif" font-size="14" font-style="italic" lengthAdjust="spacingAndGlyphs" textLength="51" x="466.5" y="70.9951">fs.hel.fi</text><rect fill="#9FC9EB" filter="url(#f1)" height="30.2969" style="stroke: #9FC9EB; stroke-width: 1.5;" width="106" x="538.5" y="51"/><text fill="#000000" font-family="sans-serif" font-size="14" lengthAdjust="spacingAndGlyphs" textLength="92" x="545.5" y="70.9951">Service 1 API</text><rect fill="#9FC9EB" filter="url(#f1)" height="30.2969" style="stroke: #9FC9EB; stroke-width: 1.5;" width="106" x="658.5" y="51"/><text fill="#000000" font-family="sans-serif" font-size="14" lengthAdjust="spacingAndGlyphs" textLength="92" x="665.5" y="70.9951">Service 2 API</text><rect fill="#FFFFFF" filter="url(#f1)" height="50.1328" style="stroke: #A80036; stroke-width: 1.0;" width="10" x="279" y="96.2969"/><rect fill="#FFFFFF" filter="url(#f1)" height="322.1953" style="stroke: #A80036; stroke-width: 1.0;" width="10" x="279" y="738.5547"/><rect fill="#FFFFFF" filter="url(#f1)" height="483.8594" style="stroke: #A80036; stroke-width: 1.0;" width="10" x="391" y="200.5625"/><rect fill="#FFFFFF" filter="url(#f1)" height="165.6641" style="stroke: #A80036; stroke-width: 1.0;" width="10" x="489" y="342.0938"/><rect fill="#FFFFFF" filter="url(#f1)" height="58.2656" style="stroke: #A80036; stroke-width: 1.0;" width="10" x="588.5" y="831.8203"/><rect fill="#FFFFFF" filter="url(#f1)" height="58.2656" style="stroke: #A80036; stroke-width: 1.0;" width="10" x="708.5" y="973.3516"/><line style="stroke: #BD2719; stroke-width: 1.0;" x1="277" x2="267" y1="117.2969" y2="113.2969"/><line style="stroke: #BD2719; stroke-width: 1.0;" x1="277" x2="267" y1="117.2969" y2="121.2969"/><line style="stroke: #BD2719; stroke-width: 1.0;" x1="40" x2="278" y1="117.2969" y2="117.2969"/><text fill="#000000" font-family="sans-serif" font-size="13" lengthAdjust="spacingAndGlyphs" textLength="68" x="47" y="112.3638">Click login</text><line style="stroke: #BD2719; stroke-width: 1.0;" x1="40" x2="50" y1="146.4297" y2="142.4297"/><line style="stroke: #BD2719; stroke-width: 1.0;" x1="40" x2="50" y1="146.4297" y2="150.4297"/><line style="stroke: #BD2719; stroke-width: 1.0;" x1="40" x2="283" y1="146.4297" y2="146.4297"/><text fill="#000000" font-family="sans-serif" font-size="13" lengthAdjust="spacingAndGlyphs" textLength="71" x="57" y="141.4966">Redirect to</text><text fill="#000000" font-family="sans-serif" font-size="13" font-weight="bold" lengthAdjust="spacingAndGlyphs" textLength="126" x="132" y="141.4966">Tunnistamo/login</text><line style="stroke: #BD2719; stroke-width: 1.0;" x1="389" x2="379" y1="200.5625" y2="196.5625"/><line style="stroke: #BD2719; stroke-width: 1.0;" x1="389" x2="379" y1="200.5625" y2="204.5625"/><line style="stroke: #BD2719; stroke-width: 1.0;" x1="40" x2="390" y1="200.5625" y2="200.5625"/><text fill="#000000" font-family="sans-serif" font-size="13" lengthAdjust="spacingAndGlyphs" textLength="87" x="47" y="195.6294">Want to login</text><line style="stroke: #BD2719; stroke-width: 1.0;" x1="40" x2="50" y1="229.6953" y2="225.6953"/><line style="stroke: #BD2719; stroke-width: 1.0;" x1="40" x2="50" y1="229.6953" y2="233.6953"/><line style="stroke: #BD2719; stroke-width: 1.0;" x1="40" x2="390" y1="229.6953" y2="229.6953"/><text fill="#000000" font-family="sans-serif" font-size="13" lengthAdjust="spacingAndGlyphs" textLength="188" x="57" y="224.7622">Show login method selection</text><line style="stroke: #BD2719; stroke-width: 1.0;" x1="389" x2="379" y1="258.8281" y2="254.8281"/><line style="stroke: #BD2719; stroke-width: 1.0;" x1="389" x2="379" y1="258.8281" y2="262.8281"/><line style="stroke: #BD2719; stroke-width: 1.0;" x1="40" x2="390" y1="258.8281" y2="258.8281"/><text fill="#000000" font-family="sans-serif" font-size="13" lengthAdjust="spacingAndGlyphs" textLength="70" x="47" y="253.895">Click ADFS</text><line style="stroke: #BD2719; stroke-width: 1.0;" x1="40" x2="50" y1="287.9609" y2="283.9609"/><line style="stroke: #BD2719; stroke-width: 1.0;" x1="40" x2="50" y1="287.9609" y2="291.9609"/><line style="stroke: #BD2719; stroke-width: 1.0;" x1="40" x2="390" y1="287.9609" y2="287.9609"/><text fill="#000000" font-family="sans-serif" font-size="13" lengthAdjust="spacingAndGlyphs" textLength="71" x="57" y="283.0278">Redirect to</text><text fill="#000000" font-family="sans-serif" font-size="13" font-weight="bold" lengthAdjust="spacingAndGlyphs" textLength="79" x="132" y="283.0278">ADFS/login</text><line style="stroke: #BD2719; stroke-width: 1.0;" x1="487" x2="477" y1="342.0938" y2="338.0938"/><line style="stroke: #BD2719; stroke-width: 1.0;" x1="487" x2="477" y1="342.0938" y2="346.0938"/><line style="stroke: #BD2719; stroke-width: 1.0;" x1="40" x2="488" y1="342.0938" y2="342.0938"/><text fill="#000000" font-family="sans-serif" font-size="13" lengthAdjust="spacingAndGlyphs" textLength="87" x="47" y="337.1606">Want to login</text><line style="stroke: #BD2719; stroke-width: 1.0;" x1="40" x2="50" y1="371.2266" y2="367.2266"/><line style="stroke: #BD2719; stroke-width: 1.0;" x1="40" x2="50" y1="371.2266" y2="375.2266"/><line style="stroke: #BD2719; stroke-width: 1.0;" x1="40" x2="488" y1="371.2266" y2="371.2266"/><text fill="#000000" font-family="sans-serif" font-size="13" lengthAdjust="spacingAndGlyphs" textLength="144" x="57" y="366.2935">Show ADFS login form</text><line style="stroke: #BD2719; stroke-width: 1.0;" x1="487" x2="477" y1="400.3594" y2="396.3594"/><line style="stroke: #BD2719; stroke-width: 1.0;" x1="487" x2="477" y1="400.3594" y2="404.3594"/><line style="stroke: #BD2719; stroke-width: 1.0;" x1="40" x2="488" y1="400.3594" y2="400.3594"/><text fill="#000000" font-family="sans-serif" font-size="13" lengthAdjust="spacingAndGlyphs" textLength="207" x="47" y="395.4263">Supply username and password</text><polygon fill="#FFE977" filter="url(#f1)" points="416,413.4922,416,438.4922,567,438.4922,567,423.4922,557,413.4922,416,413.4922" style="stroke: #FFE977; stroke-width: 1.0;"/><line style="stroke: #FFE977; stroke-width: 1.0;" x1="557" x2="557" y1="413.4922" y2="423.4922"/><line style="stroke: #FFE977; stroke-width: 1.0;" x1="567" x2="557" y1="423.4922" y2="423.4922"/><text fill="#000000" font-family="sans-serif" font-size="13" lengthAdjust="spacingAndGlyphs" textLength="130" x="422" y="430.5591">Validate credentials</text><polygon fill="#FFE977" filter="url(#f1)" points="410,452.625,410,477.625,573,477.625,573,462.625,563,452.625,410,452.625" style="stroke: #FFE977; stroke-width: 1.0;"/><line style="stroke: #FFE977; stroke-width: 1.0;" x1="563" x2="563" y1="452.625" y2="462.625"/><line style="stroke: #FFE977; stroke-width: 1.0;" x1="573" x2="563" y1="462.625" y2="462.625"/><text fill="#000000" font-family="sans-serif" font-size="13" lengthAdjust="spacingAndGlyphs" textLength="60" x="416" y="469.6919">Generate</text><text fill="#000000" font-family="sans-serif" font-size="13" font-style="italic" lengthAdjust="spacingAndGlyphs" textLength="78" x="480" y="469.6919">ADFS Token</text><line style="stroke: #BD2719; stroke-width: 1.0;" x1="40" x2="50" y1="507.7578" y2="503.7578"/><line style="stroke: #BD2719; stroke-width: 1.0;" x1="40" x2="50" y1="507.7578" y2="511.7578"/><line style="stroke: #BD2719; stroke-width: 1.0;" x1="40" x2="493" y1="507.7578" y2="507.7578"/><text fill="#000000" font-family="sans-serif" font-size="13" lengthAdjust="spacingAndGlyphs" textLength="71" x="57" y="502.8247">Redirect to</text><text fill="#000000" font-family="sans-serif" font-size="13" font-weight="bold" lengthAdjust="spacingAndGlyphs" textLength="151" x="132" y="502.8247">Tunnistamo/callback</text><text fill="#000000" font-family="sans-serif" font-size="13" lengthAdjust="spacingAndGlyphs" textLength="120" x="287" y="502.8247">(with ADFS Token)</text><line style="stroke: #BD2719; stroke-width: 1.0;" x1="389" x2="379" y1="561.8906" y2="557.8906"/><line style="stroke: #BD2719; stroke-width: 1.0;" x1="389" x2="379" y1="561.8906" y2="565.8906"/><line style="stroke: #BD2719; stroke-width: 1.0;" x1="40" x2="390" y1="561.8906" y2="561.8906"/><text fill="#000000" font-family="sans-serif" font-size="13" lengthAdjust="spacingAndGlyphs" textLength="30" x="47" y="556.9575">Pass</text><text fill="#000000" font-family="sans-serif" font-size="13" font-style="italic" lengthAdjust="spacingAndGlyphs" textLength="78" x="81" y="556.9575">ADFS Token</text><polygon fill="#FFE977" filter="url(#f1)" points="315,575.0234,315,600.0234,472,600.0234,472,585.0234,462,575.0234,315,575.0234" style="stroke: #FFE977; stroke-width: 1.0;"/><line style="stroke: #FFE977; stroke-width: 1.0;" x1="462" x2="462" y1="575.0234" y2="585.0234"/><line style="stroke: #FFE977; stroke-width: 1.0;" x1="472" x2="462" y1="585.0234" y2="585.0234"/><text fill="#000000" font-family="sans-serif" font-size="13" lengthAdjust="spacingAndGlyphs" textLength="54" x="321" y="592.0903">Validate</text><text fill="#000000" font-family="sans-serif" font-size="13" font-style="italic" lengthAdjust="spacingAndGlyphs" textLength="78" x="379" y="592.0903">ADFS Token</text><polygon fill="#FFE977" filter="url(#f1)" points="282,614.1563,282,654.1563,505,654.1563,505,624.1563,495,614.1563,282,614.1563" style="stroke: #FFE977; stroke-width: 1.0;"/><line style="stroke: #FFE977; stroke-width: 1.0;" x1="495" x2="495" y1="614.1563" y2="624.1563"/><line style="stroke: #FFE977; stroke-width: 1.0;" x1="505" x2="495" y1="624.1563" y2="624.1563"/><text fill="#000000" font-family="sans-serif" font-size="13" lengthAdjust="spacingAndGlyphs" textLength="60" x="288" y="631.2231">Generate</text><text fill="#000000" font-family="sans-serif" font-size="13" font-style="italic" lengthAdjust="spacingAndGlyphs" textLength="58" x="352" y="631.2231">ID Token</text><text fill="#000000" font-family="sans-serif" font-size="13" lengthAdjust="spacingAndGlyphs" textLength="64" x="414" y="631.2231">for UI and</text><text fill="#000000" font-family="sans-serif" font-size="13" font-style="italic" lengthAdjust="spacingAndGlyphs" textLength="96" x="288" y="646.356">Access Tokens</text><text fill="#000000" font-family="sans-serif" font-size="13" lengthAdjust="spacingAndGlyphs" textLength="102" x="388" y="646.356">for Service APIs</text><line style="stroke: #BD2719; stroke-width: 1.0;" x1="40" x2="50" y1="684.4219" y2="680.4219"/><line style="stroke: #BD2719; stroke-width: 1.0;" x1="40" x2="50" y1="684.4219" y2="688.4219"/><line style="stroke: #BD2719; stroke-width: 1.0;" x1="40" x2="395" y1="684.4219" y2="684.4219"/><text fill="#000000" font-family="sans-serif" font-size="13" lengthAdjust="spacingAndGlyphs" textLength="71" x="57" y="679.4888">Redirect to</text><text fill="#000000" font-family="sans-serif" font-size="13" font-weight="bold" lengthAdjust="spacingAndGlyphs" textLength="81" x="132" y="679.4888">UI/callback</text><line style="stroke: #BD2719; stroke-width: 1.0;" x1="277" x2="267" y1="738.5547" y2="734.5547"/><line style="stroke: #BD2719; stroke-width: 1.0;" x1="277" x2="267" y1="738.5547" y2="742.5547"/><line style="stroke: #BD2719; stroke-width: 1.0;" x1="40" x2="278" y1="738.5547" y2="738.5547"/><text fill="#000000" font-family="sans-serif" font-size="13" lengthAdjust="spacingAndGlyphs" textLength="30" x="47" y="733.6216">Pass</text><text fill="#000000" font-family="sans-serif" font-size="13" font-style="italic" lengthAdjust="spacingAndGlyphs" textLength="58" x="81" y="733.6216">ID Token</text><text fill="#000000" font-family="sans-serif" font-size="13" lengthAdjust="spacingAndGlyphs" textLength="24" x="143" y="733.6216">and</text><text fill="#000000" font-family="sans-serif" font-size="13" font-style="italic" lengthAdjust="spacingAndGlyphs" textLength="96" x="171" y="733.6216">Access Tokens</text><polygon fill="#FFE977" filter="url(#f1)" points="213,751.6875,213,776.6875,350,776.6875,350,761.6875,340,751.6875,213,751.6875" style="stroke: #FFE977; stroke-width: 1.0;"/><line style="stroke: #FFE977; stroke-width: 1.0;" x1="340" x2="340" y1="751.6875" y2="761.6875"/><line style="stroke: #FFE977; stroke-width: 1.0;" x1="350" x2="340" y1="761.6875" y2="761.6875"/><text fill="#000000" font-family="sans-serif" font-size="13" lengthAdjust="spacingAndGlyphs" textLength="54" x="219" y="768.7544">Validate</text><text fill="#000000" font-family="sans-serif" font-size="13" font-style="italic" lengthAdjust="spacingAndGlyphs" textLength="58" x="277" y="768.7544">ID Token</text><line style="stroke: #BD2719; stroke-width: 1.0;" x1="40" x2="50" y1="831.8203" y2="827.8203"/><line style="stroke: #BD2719; stroke-width: 1.0;" x1="40" x2="50" y1="831.8203" y2="835.8203"/><line style="stroke: #BD2719; stroke-width: 1.0;" x1="40" x2="278" y1="831.8203" y2="831.8203"/><text fill="#000000" font-family="sans-serif" font-size="13" lengthAdjust="spacingAndGlyphs" textLength="169" x="57" y="826.8872">Make request to Service 1</text><line style="stroke: #BD2719; stroke-width: 1.0;" x1="586.5" x2="576.5" y1="860.9531" y2="856.9531"/><line style="stroke: #BD2719; stroke-width: 1.0;" x1="586.5" x2="576.5" y1="860.9531" y2="864.9531"/><line style="stroke: #BD2719; stroke-width: 1.0;" x1="40" x2="587.5" y1="860.9531" y2="860.9531"/><text fill="#000000" font-family="sans-serif" font-size="13" lengthAdjust="spacingAndGlyphs" textLength="246" x="47" y="856.02">Make authenticated API request using</text><text fill="#000000" font-family="sans-serif" font-size="13" font-style="italic" lengthAdjust="spacingAndGlyphs" textLength="101" x="297" y="856.02">Access Token 1</text><line style="stroke: #BD2719; stroke-width: 1.0;" x1="40" x2="50" y1="890.0859" y2="886.0859"/><line style="stroke: #BD2719; stroke-width: 1.0;" x1="40" x2="50" y1="890.0859" y2="894.0859"/><line style="stroke: #BD2719; stroke-width: 1.0;" x1="40" x2="592.5" y1="890.0859" y2="890.0859"/><text fill="#000000" font-family="sans-serif" font-size="13" lengthAdjust="spacingAndGlyphs" textLength="58" x="57" y="885.1528">API reply</text><line style="stroke: #BD2719; stroke-width: 1.0;" x1="277" x2="267" y1="919.2188" y2="915.2188"/><line style="stroke: #BD2719; stroke-width: 1.0;" x1="277" x2="267" y1="919.2188" y2="923.2188"/><line style="stroke: #BD2719; stroke-width: 1.0;" x1="40" x2="278" y1="919.2188" y2="919.2188"/><text fill="#000000" font-family="sans-serif" font-size="13" lengthAdjust="spacingAndGlyphs" textLength="67" x="47" y="914.2856">Pass reply</text><line style="stroke: #BD2719; stroke-width: 1.0;" x1="40" x2="50" y1="973.3516" y2="969.3516"/><line style="stroke: #BD2719; stroke-width: 1.0;" x1="40" x2="50" y1="973.3516" y2="977.3516"/><line style="stroke: #BD2719; stroke-width: 1.0;" x1="40" x2="278" y1="973.3516" y2="973.3516"/><text fill="#000000" font-family="sans-serif" font-size="13" lengthAdjust="spacingAndGlyphs" textLength="169" x="57" y="968.4185">Make request to Service 2</text><line style="stroke: #BD2719; stroke-width: 1.0;" x1="706.5" x2="696.5" y1="1002.4844" y2="998.4844"/><line style="stroke: #BD2719; stroke-width: 1.0;" x1="706.5" x2="696.5" y1="1002.4844" y2="1006.4844"/><line style="stroke: #BD2719; stroke-width: 1.0;" x1="40" x2="707.5" y1="1002.4844" y2="1002.4844"/><text fill="#000000" font-family="sans-serif" font-size="13" lengthAdjust="spacingAndGlyphs" textLength="246" x="47" y="997.5513">Make authenticated API request using</text><text fill="#000000" font-family="sans-serif" font-size="13" font-style="italic" lengthAdjust="spacingAndGlyphs" textLength="101" x="297" y="997.5513">Access Token 2</text><line style="stroke: #BD2719; stroke-width: 1.0;" x1="40" x2="50" y1="1031.6172" y2="1027.6172"/><line style="stroke: #BD2719; stroke-width: 1.0;" x1="40" x2="50" y1="1031.6172" y2="1035.6172"/><line style="stroke: #BD2719; stroke-width: 1.0;" x1="40" x2="712.5" y1="1031.6172" y2="1031.6172"/><text fill="#000000" font-family="sans-serif" font-size="13" lengthAdjust="spacingAndGlyphs" textLength="58" x="57" y="1026.6841">API reply</text><line style="stroke: #BD2719; stroke-width: 1.0;" x1="282" x2="272" y1="1060.75" y2="1056.75"/><line style="stroke: #BD2719; stroke-width: 1.0;" x1="282" x2="272" y1="1060.75" y2="1064.75"/><line style="stroke: #BD2719; stroke-width: 1.0;" x1="40" x2="283" y1="1060.75" y2="1060.75"/><text fill="#000000" font-family="sans-serif" font-size="13" lengthAdjust="spacingAndGlyphs" textLength="67" x="47" y="1055.8169">Pass reply</text></g></svg>