<?xml version="1.0" encoding="utf-8"?>
<!-- Generator: Adobe Illustrator 21.0.2, SVG Export Plug-In . SVG Version: 6.00 Build 0)  -->
<svg version="1.1" id="helsinki-vaakuna-helfisininen"
	 xmlns="http://www.w3.org/2000/svg" xmlns:xlink="http://www.w3.org/1999/xlink" x="0px" y="0px" viewBox="0 0 250 250"
	 style="enable-background:new 0 0 250 250;" xml:space="preserve">
<style type="text/css">
	.st0{fill:#005EB8;}
</style>
<title>helsinki-vaakuna-helfisininen</title>
<g>
	<path class="st0" d="M226.6,5.8H23.4c-1,0-1.8,0.8-1.8,1.8v190.6c0,4.1,0,14.8,11.5,26.3c11.3,11.1,25.7,11.2,26.3,11.2h51.7
		c8.4,0,12.1,7.2,12.3,7.5c0.3,0.6,0.9,1,1.6,1c0,0,0,0,0,0c0.6,0,1.2-0.4,1.6-0.9c0.2-0.3,4.1-7.6,12.3-7.6h51.9
		c0.6,0,14.7-0.1,26.1-11.3c11.5-11.5,11.5-22.2,11.5-26.3V7.5C228.3,6.6,227.6,5.8,226.6,5.8z M224.8,9.3v151
		c-2.7-1.2-5.5-2.4-9.4-2.4c-5.2,0-8.8,1.8-12.3,3.6c-3.2,1.6-6.2,3.1-10.3,3.1c-4.1,0-7.1-1.5-10.3-3
		c17.8-16.1,27.9-39.1,27.9-63.2c0-1.8,0-3.6-0.2-5.5c0,0,0,0,0,0c0,0,0,0,0-0.1c0,0,0-0.1,0-0.1c0-0.1,0-0.1,0-0.2
		c0-0.1,0-0.1-0.1-0.2c0,0,0-0.1,0-0.1c0,0,0,0,0,0c0-0.1-0.1-0.1-0.1-0.2c0,0,0-0.1-0.1-0.1c0,0-0.1-0.1-0.1-0.1
		c0,0-0.1-0.1-0.1-0.1c0,0-0.1-0.1-0.1-0.1c0,0-0.1-0.1-0.1-0.1c0,0-0.1,0-0.1,0c-0.1,0-0.1,0-0.2-0.1c0,0-0.1,0-0.1,0
		c-0.1,0-0.1,0-0.2,0c0,0-0.1,0-0.1,0c-0.1,0-0.1,0-0.2,0c0,0,0,0,0,0c0,0-0.1,0-0.1,0c-0.1,0-0.1,0-0.2,0c-0.1,0-0.1,0-0.2,0.1
		c0,0-0.1,0-0.1,0l-10.1,5.1c0,0,0,0-0.1,0c-0.1,0-0.1,0.1-0.1,0.1c0,0-0.1,0.1-0.1,0.1c0,0-0.1,0.1-0.1,0.1c0,0-0.1,0.1-0.1,0.1
		c0,0-0.1,0.1-0.1,0.1c0,0,0,0.1-0.1,0.1c0,0,0,0.1-0.1,0.1c0,0,0,0.1,0,0.1c0,0,0,0.1,0,0.1c0,0.1,0,0.1,0,0.2c0,0,0,0.1,0,0.1v0.2
		c0,2-0.1,4-0.2,5.9c-10.1,5.6-19.8,9.7-29.7,12.5c0,0-0.1,0-0.1,0c-0.1,0-0.1,0-0.1,0.1c0,0-0.1,0-0.1,0.1c0,0-0.1,0.1-0.1,0.1
		c0,0-0.1,0.1-0.1,0.1c0,0-0.1,0.1-0.1,0.1c0,0-0.1,0.1-0.1,0.1c0,0-0.1,0.1-0.1,0.1c0,0,0,0.1-0.1,0.1c0,0,0,0.1-0.1,0.1
		c0,0,0,0.1,0,0.1c0,0,0,0.1,0,0.1c0,0.1,0,0.1,0,0.2c0,0,0,0.1,0,0.1v9.7c-13.1,3.7-26.8,5.6-41,5.6c-13.9,0-27.7-2-41-5.7v-9.5
		c0,0,0-0.1,0-0.1c0-0.1,0-0.1,0-0.2c0,0,0-0.1,0-0.1c0,0,0-0.1,0-0.1c0,0,0-0.1-0.1-0.1c0,0,0-0.1-0.1-0.1c0,0-0.1-0.1-0.1-0.1
		c0,0-0.1-0.1-0.1-0.1c0,0-0.1-0.1-0.1-0.1c0,0-0.1-0.1-0.1-0.1c0,0-0.1-0.1-0.1-0.1c0,0-0.1,0-0.1-0.1c-0.1,0-0.1,0-0.2-0.1
		c0,0,0,0-0.1,0c-10-2.9-20-7.1-29.7-12.5c-0.2-2-0.2-3.9-0.2-5.9v-0.2c0,0,0-0.1,0-0.1c0-0.1,0-0.1,0-0.2c0-0.1,0-0.1,0-0.1
		c0,0,0-0.1,0-0.1c0-0.1,0-0.1-0.1-0.1c0,0,0-0.1-0.1-0.1c0,0-0.1-0.1-0.1-0.1c0,0-0.1-0.1-0.1-0.1c0,0-0.1-0.1-0.1-0.1
		c0,0-0.1-0.1-0.1-0.1c0,0-0.1-0.1-0.1-0.1c0,0,0,0-0.1,0L42,91.6c0,0-0.1,0-0.1,0c-0.1,0-0.1,0-0.2-0.1c-0.1,0-0.1,0-0.2,0
		c0,0-0.1,0-0.1,0c0,0,0,0,0,0c-0.1,0-0.1,0-0.2,0c0,0-0.1,0-0.1,0c0,0-0.1,0-0.1,0c-0.1,0-0.1,0-0.2,0c0,0-0.1,0-0.1,0
		c-0.1,0-0.1,0-0.2,0.1c0,0,0,0-0.1,0c-0.1,0-0.1,0.1-0.2,0.1c0,0,0,0-0.1,0.1c-0.1,0-0.1,0.1-0.2,0.2c0,0,0,0.1-0.1,0.1
		c0,0.1-0.1,0.1-0.1,0.2c0,0,0,0,0,0c0,0,0,0.1,0,0.1c0,0.1,0,0.1-0.1,0.2c0,0.1,0,0.1,0,0.2c0,0,0,0.1,0,0.1c0,0,0,0,0,0.1
		c0,0,0,0,0,0c-0.2,1.9-0.2,3.7-0.2,5.5c0,24.2,10.2,47.1,28,63.3c-3.1,1.6-6.1,3-10.1,3c-4.2,0-7.3-1.6-10.6-3.2
		c-3.5-1.7-7-3.5-12-3.5c-3.9,0-6.9,1.2-9.6,2.4V9.3H224.8z M158.2,161.3c-3.3,1.6-6.4,3.1-10.6,3.1c-4.2,0-7.3-1.5-10.6-3.1
		c-2.5-1.2-5.1-2.5-8.2-3c16.2-0.4,32-3.3,47-8.5c-3.3,3.3-6.9,6.3-10.9,8.9C162.4,159.3,160.3,160.3,158.2,161.3z M85.6,158.8
		c-4.1-2.7-7.9-5.8-11.3-9.1c15,5.3,30.8,8.2,47,8.6c-3.2,0.6-5.8,1.9-8.3,3.2c-3.3,1.6-6.4,3.2-10.6,3.2c-4.2,0-7.3-1.6-10.6-3.2
		C89.9,160.5,87.9,159.5,85.6,158.8z M70.6,160.2c-17.7-15.6-27.9-38.1-27.9-61.8c0-1,0-2,0-2.9l7.2,3.7c0.1,11.2,2.7,22,7.4,31.8
		c0,0.4,0.2,0.8,0.5,1c5,10,12.3,18.9,21.4,26C75.8,158.1,73.1,159,70.6,160.2z M169.1,119.4c9.1-2.7,18.1-6.5,27.4-11.4
		c-0.4,2.8-0.9,5.6-1.6,8.3c-8.3,4.4-16.9,8-25.8,10.7V119.4z M193.6,120.4c-1,3.2-2.3,6.3-3.7,9.3c-20.2,9.7-42.7,14.8-64.9,14.8
		c-22.4,0-44.2-5-64.9-14.8c-1.5-3.1-2.7-6.2-3.8-9.5c8.1,4.1,16.6,7.4,25.3,10c0.3,0.2,0.6,0.3,0.9,0.3c0,0,0,0,0.1,0
		c13.8,4,28.1,6,42.5,6C149.4,136.6,172.4,131.2,193.6,120.4z M180.3,144.7c-17.4,7-36,10.5-55.3,10.5c-19.2,0-37.8-3.6-55.3-10.6
		c-2.7-3.3-5.2-6.8-7.3-10.4c20,8.9,41.1,13.4,62.6,13.4c21.4,0,42.9-4.6,62.6-13.4C185.5,137.9,183.1,141.4,180.3,144.7z
		 M80.9,126.9c-8.9-2.7-17.5-6.3-25.8-10.7c-0.7-2.7-1.2-5.4-1.6-8.2c9,4.8,18.2,8.7,27.4,11.4V126.9z M192.3,131.9
		c0.2-0.2,0.4-0.6,0.4-0.9c2-4.2,3.6-8.5,4.8-13c0.1-0.1,0.1-0.3,0.1-0.4c1.6-6,2.4-12.1,2.5-18.5l7.2-3.7c0,1,0,1.9,0,2.9
		c0,23.7-10.1,46.2-27.9,61.8c-2.5-1.1-5.2-2-8.5-2.2C180.1,150.9,187.3,142,192.3,131.9z M214.4,222
		c-10.3,10.1-23.5,10.2-23.6,10.2h-51.9c-7.1,0-11.6,4.3-13.8,7.1c-2.2-2.8-6.6-7.1-13.9-7.1H59.4c-0.1,0-13.5-0.2-23.8-10.2
		c-10.4-10.4-10.4-19.8-10.4-23.8v-34.5c3-1.4,5.8-2.7,9.6-2.7c4.2,0,7.3,1.6,10.6,3.2c3.5,1.7,7,3.5,12,3.5c5,0,8.6-1.8,12-3.6
		c3.2-1.6,6.3-3.2,10.3-3.2c1.6,0,3.1,0.2,4.5,0.6c0,0,0,0,0,0c0.3,0.2,0.6,0.2,0.8,0.2c0,0,0,0,0,0c1.8,0.6,3.5,1.4,5.2,2.3
		c3.5,1.7,7,3.5,12,3.5c4.9,0,8.5-1.8,12-3.5c3.3-1.6,6.4-3.2,10.6-3.2c4.2,0,7.3,1.5,10.6,3.1c3.5,1.7,7,3.4,12,3.4s8.5-1.7,12-3.4
		c1.7-0.8,3.4-1.6,5.2-2.2c0.1,0,0.2,0,0.2,0c0.3,0,0.6-0.1,0.8-0.3c0.1,0,0.1-0.1,0.2-0.1c1.3-0.3,2.6-0.5,4.1-0.5
		c4.2,0,7.3,1.6,10.6,3.2c3.5,1.7,7,3.5,12,3.5c4.9,0,8.4-1.8,11.7-3.5c3.3-1.7,6.4-3.2,10.9-3.2c3.8,0,6.5,1.3,9.4,2.7l0.1,0v34.5
		C224.8,202.2,224.8,211.5,214.4,222z"/>
	<path class="st0" d="M66.4,46c2.3,0,4,1.7,4,3.8c0,2,0.8,3.7,2.2,4.9c-0.4,0.8-0.6,1.8-0.6,2.8c0,2.9,2.1,5.4,4.9,5.9
		c0,2.6,0.6,5.1,1.7,7.2c-0.6,0.6-1,1.4-1,2.3c0,0.8,0.2,1.5,0.6,2c-1.1,1.1-1.7,2.6-1.7,4.2c0,1.7,0.6,3.1,1.7,4.1
		c-0.4,0.5-0.6,1.2-0.6,1.9c0,1.5,0.9,2.8,2.2,3.1c0.1,0,0.2,0,0.3,0h90.6c0.1,0,0.2,0,0.4-0.1c1.2-0.4,2.1-1.7,2.1-3.1
		c0-0.5-0.1-1.2-0.7-1.9c1.1-1.1,1.8-2.6,1.8-4.1c0-1.7-0.7-3.2-1.8-4.3c0.4-0.6,0.7-1.3,0.7-2c0-0.9-0.4-1.7-1-2.2
		c1.1-2.4,1.7-4.9,1.5-7.3c2.9-0.5,5.1-3,5.1-5.9c0-1-0.2-2-0.7-2.9c1.4-1.2,2.2-2.9,2.2-4.7c0-2.1,1.7-3.8,3.8-3.8
		c0.6,0,1.1-0.5,1.1-1.1c0-3.3-2.7-6-6-6c-2.3,0-4.2,1.1-5.4,3.1c-0.4-0.1-0.8-0.2-1.3-0.2c-3.4,0-6.2,2.9-6.2,6.2
		c0,0.5,0.3,0.9,0.8,1c0.4,0.1,1.2,0.7,1.6,1.1c0.1,0.1,0.2,0.2,0.3,0.2c0,0,0.1,0.1,0.2,0.2c0,0,0,0,0,0c-0.5,0.2-1,0.2-1.7,0.2
		c-0.6,0-1.2,0-1.5-0.1c-0.4-0.2-0.9-0.6-1.3-0.9c-0.4-0.4-0.7-0.9-0.9-1.4c-0.1-0.4-0.4-0.6-0.8-0.7c-0.4-0.1-0.8,0-1,0.3
		c-0.6,0.6-1.1,1.4-1.3,2.1c-0.2,0.3-0.6,1.2-0.6,2.3c0,0.3,0,0.7,0.1,1c-0.4,0.1-0.7,0.2-1.1,0.5l-0.3,0.1c-0.4,0.2-1.1,0.5-1.5,1
		c-0.6,0.6-1.1,1.4-1.4,2.2c-0.1,0.3-0.1,0.6,0.1,0.8c0.3,0.5,0.8,1.3,1.3,1.8c0.6,0.6,1.5,0.9,2.1,1.1c0.2,0.1,0.5,0.2,0.9,0.3
		c-0.1,0.4-0.1,0.7-0.1,1.1c0,1,0.4,1.9,0.5,2.1c0.3,0.8,0.8,1.6,1.4,2.2c0.3,0.3,0.7,0.4,1,0.3c0.4-0.1,0.7-0.4,0.8-0.7
		c0.2-0.5,0.5-1,0.9-1.4c0.4-0.4,0.7-0.7,1.1-0.9c0.6-0.2,1.2-0.4,1.7-0.4c0.5,0,1.1,0.2,1.5,0.3c0,0,0.1,0,0.1,0.1
		c-2,2.6-5.2,4.1-8.6,4.1c-3.7,0-7.3-2-9.2-5.2c2.2-0.9,3.8-3.1,3.8-5.6c0-3.4-2.7-6.2-6-6.2c-3.5,0-6.2,2.7-6.2,6.2
		c0,2.5,1.6,4.7,3.9,5.6c-2.1,3.2-5.5,5.2-9.3,5.2c-3.6,0-6.9-1.8-9.1-4.8c0-0.1-0.1-0.1-0.1-0.2c0.2-0.2,0.5-0.3,0.9-0.4l0.4-0.1
		c0.5-0.2,0.7-0.2,1-0.2c0.5,0,1.3,0.2,1.7,0.4c0.3,0.1,0.6,0.3,0.9,0.6c0.2,0.1,0.3,0.2,0.5,0.4c0.2,0.3,0.4,0.5,0.6,1.1
		c0.1,0.3,0.4,0.6,0.7,0.7c0.3,0.1,0.7,0.1,1-0.1c0.9-0.6,1.3-1.3,1.5-2c0.5-0.9,0.5-1.8,0.5-2.5c0-0.3,0-0.6,0-0.9
		c0.2,0,0.3-0.1,0.4-0.2l0.4-0.1c0.9-0.3,1.5-0.9,2-1.4c0.5-0.5,1.1-1.1,1.4-2c0.1-0.2,0.1-0.5,0-0.7c-0.3-0.9-0.9-1.5-1.4-2
		c-0.5-0.5-1.1-1.1-2-1.4c-0.3-0.1-0.6-0.2-0.9-0.3c0.1-0.3,0.1-0.6,0.1-0.9c0-0.9-0.3-1.7-0.5-2.4c-0.3-0.9-0.9-1.5-1.4-2
		c-0.3-0.3-0.7-0.4-1-0.3c-0.4,0.1-0.7,0.4-0.8,0.7c-0.2,0.5-0.3,0.7-0.7,1c-0.1,0.1-0.2,0.2-0.3,0.3c-0.3,0.4-0.5,0.5-1,0.7
		c-0.1,0-0.2,0.1-0.3,0.1c0-0.2-0.1-0.4-0.1-0.6c0-0.6,0.1-0.8,0.3-1.3l0.1-0.3c0.1-0.4,0.5-0.8,0.9-1.1c0.1-0.1,0.1-0.1,0.1-0.2
		c0.2-0.3,0.5-0.5,0.9-0.6l0.2-0.1c0.3-0.2,0.5-0.5,0.6-0.8c0.1-0.4-0.1-0.7-0.3-1c-0.5-0.5-1.1-1.1-1.8-1.3c-1-0.5-2.2-0.7-3.4-0.5
		c-0.1-0.3-0.2-0.6-0.3-0.9c-0.3-0.9-0.9-1.5-1.4-2s-1.1-1.1-2-1.4c-0.3-0.1-0.6-0.1-0.8,0.1c-0.5,0.3-1.3,0.8-1.9,1.3
		c-0.5,0.5-1.1,1.1-1.4,2c-0.1,0.3-0.2,0.6-0.2,0.9c-1.3-0.2-2.4,0.1-3.4,0.5c-0.9,0.3-1.5,0.9-2,1.4c-0.3,0.3-0.4,0.7-0.3,1
		c0.1,0.4,0.4,0.7,0.7,0.8c0.5,0.2,0.7,0.3,1,0.7c0.1,0.1,0.2,0.2,0.3,0.3c0.4,0.3,0.5,0.5,0.7,1c0,0.1,0.1,0.2,0.1,0.3
		c0.3,0.4,0.3,0.5,0.3,1.4c0,0.2,0,0.4-0.1,0.6c0,0-0.1,0-0.1-0.1l-0.3-0.1c-0.4-0.2-0.7-0.3-0.9-0.6c0-0.1-0.1-0.1-0.1-0.2
		c-0.4-0.4-0.7-0.7-0.9-1.1c-0.1-0.4-0.4-0.6-0.8-0.7c-0.4-0.1-0.8,0-1,0.3c-0.5,0.5-1.1,1.1-1.4,2c-0.2,0.7-0.5,1.5-0.5,2.3
		c0,0.3,0,0.6,0.1,0.9c-0.3,0.1-0.7,0.2-1,0.3c-0.5,0.3-1.3,0.8-1.9,1.3c-0.5,0.5-1.1,1.1-1.4,2c-0.1,0.2-0.1,0.5,0,0.7
		c0.3,0.9,0.9,1.5,1.4,2c0.6,0.6,1.4,1.1,2.1,1.3c0.2,0.1,0.5,0.2,0.8,0.3c-0.1,0.3-0.1,0.6-0.1,0.9c0,0.8,0.3,1.6,0.5,2.4
		c0.3,0.9,0.9,1.5,1.4,2c0.3,0.3,0.7,0.4,1,0.3c0.4-0.1,0.7-0.4,0.8-0.7c0.1-0.4,0.5-0.7,0.9-1.1c0.4-0.4,0.7-0.7,1.1-0.9
		c0.6-0.2,1.2-0.4,1.7-0.4c0.5,0,1,0.2,1.3,0.3c0,0,0.1,0,0.2,0.1c0.3,0.1,0.6,0.2,0.9,0.3c0,0.1-0.1,0.2-0.1,0.3
		c-1.9,3-5.4,4.9-9.1,4.9c-3.7,0-7.3-2-9.1-5.2c2.2-0.9,3.8-3.1,3.8-5.6c0-3.4-2.7-6.2-6-6.2c-3.5,0-6.2,2.7-6.2,6.2
		c0,2.5,1.6,4.7,3.9,5.6c-2.1,3.2-5.5,5.2-9.3,5.2c-3.3,0-6.3-1.5-8.5-4c0.1,0,0.2-0.1,0.3-0.1c0.3-0.2,0.8-0.3,1.3-0.3
		c0.7,0,1.2,0.2,1.5,0.3c0,0,0.1,0,0.1,0.1c0.5,0.2,1,0.5,1.4,0.9c0.3,0.3,0.4,0.8,0.6,1.4c0.1,0.3,0.4,0.6,0.7,0.7
		c0.3,0.1,0.7,0.1,1-0.1c0.9-0.6,1.2-1.4,1.5-2.2c0.6-0.7,0.6-1.7,0.6-2.3c0-0.4,0-0.7,0-1.1c0.2-0.1,0.3-0.1,0.5-0.2l0.4-0.1
		c0.8-0.3,1.4-0.5,2-1.2c0.6-0.6,1.1-1.3,1.3-1.9c0.1-0.3,0.2-0.6,0.1-0.8c-0.3-0.8-0.8-1.6-1.4-2.2c-0.6-0.6-1.2-0.9-1.9-1.1
		c-0.3-0.2-0.7-0.3-1-0.4c0-0.4,0-0.7,0-1c0-1-0.4-1.9-0.5-2.1c-0.3-0.8-0.8-1.6-1.4-2.2c-0.3-0.3-0.7-0.4-1-0.3
		c-0.4,0.1-0.7,0.4-0.8,0.7c-0.2,0.6-0.3,1-0.7,1.2c-0.1,0-0.1,0.1-0.2,0.1c-0.4,0.4-0.7,0.7-1.1,0.9c-0.5,0.2-0.8,0.2-1.7,0.2
		c-0.6,0-1.2,0-1.5-0.1c0,0-0.1,0-0.1-0.1c0.1-0.1,0.3-0.3,0.4-0.4c0.4-0.4,0.9-0.7,1.4-0.9c0.2-0.1,0.3-0.1,0.4-0.3l0.2-0.2
		c0.2-0.2,0.3-0.4,0.3-0.7c0.1-1.5-0.4-3.1-1.6-4.3c-1.5-1.7-3.9-2.4-5.9-1.8c-1-1.9-3-3.1-5.3-3.1c-3.4,0-6.2,2.7-6.2,6
		C65.3,45.5,65.8,46,66.4,46z M74.2,57.4c0-2.3,1.7-4,3.8-4c2.3,0,4,1.7,4,4c0,2.1-1.8,3.8-4,3.8C75.9,61.2,74.2,59.5,74.2,57.4z
		 M79.1,63.4C79.1,63.4,79.1,63.4,79.1,63.4C79.1,63.4,79.1,63.4,79.1,63.4C79.1,63.4,79.1,63.4,79.1,63.4z M171.4,63.5
		C171.4,63.5,171.4,63.4,171.4,63.5c0-0.1-0.1-0.1-0.1-0.1c0,0,0,0,0.1,0C171.4,63.4,171.4,63.4,171.4,63.5z M172.4,61.2
		c-2.1,0-3.8-1.7-3.8-3.8c0-2.2,1.7-4,3.8-4c1.2,0,2.3,0.5,3,1.3c0,0,0,0.1,0,0.1c0.1,0.1,0.2,0.3,0.3,0.3c0.4,0.6,0.6,1.4,0.6,2.2
		C176.5,59.6,174.7,61.2,172.4,61.2z M168.4,47.4c0.3-1.9,2-3.4,4-3.4c0.5,0,1,0.2,1.3,0.3c0.3,0.1,0.6,0.2,0.9,0
		c0.3-0.1,0.5-0.3,0.6-0.6c0.8-1.7,2.2-2.7,3.9-2.7c1.7,0,3.2,1.2,3.7,2.9c-2.7,0.6-4.8,3-4.8,5.9c0,1.2-0.5,2.2-1.4,3
		c-1.1-1-2.6-1.6-4.2-1.6c-0.4,0-0.7,0-1.1,0.1c0,0,0-0.1,0.1-0.1c0.2-0.3,0.2-0.7,0-1c-0.1-0.3-0.7-1.3-1.4-1.7
		C169.6,48.2,169,47.7,168.4,47.4z M164.9,62c-0.9,0.3-1.5,0.9-2,1.4c-0.1,0.1-0.3,0.3-0.4,0.5c0-0.1,0-0.1-0.1-0.2
		c-0.2-0.3-0.3-0.8-0.3-1.3c0-0.5,0.2-1.1,0.4-1.7c0.1-0.3,0.1-0.7-0.2-1c-0.2-0.3-0.5-0.5-0.9-0.5c-0.5,0-1-0.2-1.3-0.3
		c0,0-0.1,0-0.2-0.1c-0.5-0.2-1.1-0.4-1.3-0.6c-0.2-0.2-0.5-0.6-0.7-0.9c0.2-0.3,0.4-0.7,0.7-0.9c0.2-0.2,0.6-0.4,0.9-0.5
		c0.1-0.1,0.3-0.1,0.5-0.3c0.4-0.2,0.8-0.3,1.4-0.3c0.4,0,0.7-0.2,0.9-0.5c0.2-0.3,0.3-0.7,0.1-1c-0.2-0.6-0.4-1.2-0.4-1.6
		c0-0.5,0.2-1,0.4-1.4c0,0,0,0,0,0c0.1,0.2,0.3,0.3,0.4,0.5c0.6,0.6,1.3,1.1,2,1.4c0.8,0.3,1.6,0.3,2.4,0.3c0.3,0,0.6,0,1,0
		c-1.2,1.1-1.9,2.7-1.9,4.5c0,1.6,0.6,3,1.6,4.1c-0.2,0-0.5-0.1-0.8-0.1C166.4,61.5,165.6,61.7,164.9,62z M144.9,57.4
		c0-2.3,1.7-4,4-4c2.1,0,3.8,1.8,3.8,4c0,2.1-1.7,3.8-3.8,3.8C146.7,61.2,144.9,59.6,144.9,57.4z M97.7,57.4c0-2.3,1.7-4,4-4
		c2.1,0,3.8,1.8,3.8,4c0,2.1-1.7,3.8-3.8,3.8C99.5,61.2,97.7,59.6,97.7,57.4z M90.1,70.4c4.8,0,9.2-2.6,11.6-6.9c0,0,0,0,0,0
		c2.2,4.2,6.7,6.9,11.4,6.9c4.5,0,8.7-2.3,11.1-6c0.1-0.3,0.3-0.4,0.5-0.6c0.2-0.2,0.3-0.5,0.3-0.8c0-0.3-0.1-0.6-0.3-0.9
		c-0.1-0.1-0.1-0.3-0.2-0.4c-0.6-0.6-1.5-0.9-2.1-1.1c-0.3-0.2-1.2-0.6-2.3-0.6c-0.8,0-1.7,0.3-2.4,0.5c-0.9,0.3-1.5,0.9-2,1.4
		c-0.1,0.1-0.3,0.3-0.4,0.4c0,0,0,0,0,0c-0.2-0.6-0.4-1.2-0.4-1.7c0-0.5,0.2-1,0.3-1.3c0.2-0.3,0.2-0.7,0-1.1
		c-0.2-0.3-0.6-0.5-0.9-0.5c-0.5,0-1-0.2-1.4-0.4c-0.5-0.2-1-0.5-1.4-0.9c-0.3-0.3-0.5-0.5-0.7-0.8c0.2-0.3,0.4-0.5,0.7-0.8
		c0.4-0.4,0.9-0.7,1.1-0.9c0.6-0.2,1.2-0.4,1.7-0.4c0.4,0,0.7-0.2,0.9-0.5c0.2-0.3,0.2-0.7,0-1.1c-0.2-0.3-0.3-0.8-0.3-1.3
		c0-0.5,0.2-1,0.4-1.7c0.1,0.1,0.2,0.2,0.3,0.4c0.5,0.8,1.3,1.1,1.7,1.3l0.2,0.1c0.2,0.1,0.4,0.2,0.6,0.2c0.2,0.2,0.5,0.3,0.8,0.3
		h0.4c0.5,0,0.9-0.3,1-0.8c0.2-0.7,0.5-1.5,0.5-2.3c0-0.9,0-1.6-0.6-2.5c-0.2-0.6-0.5-1.3-1.3-1.9c-0.1-0.2-0.2-0.3-0.4-0.4
		c0.6-0.2,1.1-0.4,1.6-0.4c0.6,0,1,0,1.4,0.3c0.3,0.2,0.8,0.2,1.1,0.1c0.4-0.2,0.6-0.6,0.6-1c0-0.6,0-1.2,0.2-1.7
		c0.1-0.4,0.5-0.7,0.9-1.1c0.2-0.2,0.5-0.5,0.8-0.7c0.2,0.2,0.5,0.4,0.7,0.7c0.4,0.4,0.7,0.7,0.9,1.1c0.2,0.6,0.4,1.2,0.4,1.7
		c0,0.4,0.2,0.8,0.6,1c0.4,0.2,0.8,0.2,1.1-0.1c0.4-0.3,0.6-0.3,1.2-0.3c0.7,0,1.2,0.2,1.6,0.4c-0.2,0.1-0.3,0.3-0.4,0.5
		c-0.5,0.5-1,1-1.3,1.9l-0.1,0.3c-0.2,0.6-0.4,1.1-0.4,2.1c0,0.9,0.3,1.7,0.5,2.4c0,0,0,0.1,0.1,0.1c-1.1-1.4-2.9-2.3-4.8-2.3
		c-3.3,0-6,2.8-6,6.2c0,3.3,2.8,6,6,6c3.4,0,6.2-2.7,6.2-6c0-1.4-0.4-2.6-1.2-3.7c0.2,0.2,0.5,0.3,0.7,0.3h0.4c0.2,0,0.3,0,0.5-0.1
		c0.1-0.1,0.2-0.1,0.3-0.1c0.2-0.1,0.4-0.2,0.6-0.3c0.6-0.2,1.2-0.5,1.8-1.3c0.2-0.1,0.3-0.2,0.4-0.4c0.2,0.6,0.4,1.1,0.4,1.6
		c0,0.5-0.2,1-0.3,1.3c-0.2,0.3-0.2,0.7,0,1.1c0.2,0.3,0.6,0.5,0.9,0.5c0.5,0,1.1,0.2,1.7,0.4c0.4,0.1,0.8,0.5,1.1,0.9
		c0.3,0.3,0.5,0.5,0.7,0.8c-0.2,0.3-0.4,0.5-0.7,0.8c-0.4,0.4-0.7,0.7-1.1,0.9l-0.4,0.2c-0.5,0.2-0.7,0.2-1,0.2
		c-0.4,0-0.7,0.2-0.9,0.5c-0.2,0.3-0.2,0.7,0,1.1c0.1,0.2,0.1,0.8,0.1,1.3c0,0.6,0,1-0.3,1.4c0,0,0,0.1-0.1,0.1
		c-0.1-0.1-0.2-0.2-0.3-0.3c-0.1-0.1-0.1-0.1-0.2-0.1c-0.2-0.1-0.4-0.2-0.5-0.4c-0.4-0.3-0.9-0.7-1.4-0.8c-0.6-0.3-1.7-0.6-2.5-0.6
		c-0.7,0-1.3,0.2-1.8,0.4l-0.4,0.1c-0.8,0.3-1.4,0.5-2,1.2L126,62c-0.2,0.2-0.3,0.5-0.3,0.8c0,0.6,0.2,1,0.4,1.3
		c0,0.1,0.1,0.2,0.1,0.3c0,0.1,0.1,0.1,0.1,0.1c2.6,3.7,6.6,5.8,11,5.8c4.8,0,9.2-2.6,11.6-6.9c0,0,0,0,0,0
		c2.2,4.2,6.7,6.9,11.4,6.9c4.5,0,8.7-2.3,11-5.9c0-0.1,0.1-0.1,0.1-0.2c-0.1,2.7-1.1,5-1.8,6.2c-0.2,0.3-0.2,0.6-0.1,0.9
		c0.1,0.3,0.4,0.5,0.7,0.6c0.2,0.1,0.6,0.3,0.6,0.7c0,0.4-0.4,0.9-0.6,1c-0.4,0.1-0.7,0.5-0.7,0.9c0,0.4,0.2,0.8,0.6,1.1
		c1.2,0.7,1.9,1.9,1.9,3.3c0,1.5-1,2.6-1.9,3c-0.4,0.2-0.6,0.5-0.6,0.9c0,0.4,0.2,0.8,0.5,1c0.3,0.2,0.9,0.6,0.9,1.1
		c0,0.4-0.3,0.8-0.5,0.9H80.2c-0.3-0.1-0.4-0.6-0.4-0.9c0-0.3,0.1-0.7,0.7-1c0.4-0.2,0.6-0.6,0.6-1c0-0.4-0.3-0.8-0.7-1
		c-1.1-0.5-1.8-1.6-1.8-3c0-1.4,0.7-2.6,1.9-3.3c0.4-0.2,0.6-0.7,0.5-1.1c-0.1-0.4-0.4-0.8-0.8-0.9c-0.3-0.1-0.5-0.6-0.5-0.9
		c0-0.3,0.1-0.7,0.7-1c0.3-0.1,0.5-0.4,0.6-0.7s0-0.6-0.1-0.9c-1.1-1.7-1.7-3.6-1.8-5.8c0,0,0,0,0,0C81.8,68.3,85.8,70.4,90.1,70.4z
		 M129.3,55c0,2.1-1.8,3.8-4,3.8c-2.1,0-3.8-1.7-3.8-3.8c0-2.2,1.7-4,3.8-4C127.5,50.9,129.3,52.7,129.3,55z M85.5,52.7
		c0.9-0.3,1.5-0.8,1.9-1.3c0.2-0.1,0.4-0.3,0.5-0.5c0,0,0,0.1,0,0.1c0.2,0.3,0.3,0.8,0.3,1.3c0,0.6,0,1-0.3,1.4
		c-0.2,0.3-0.2,0.8-0.1,1.1c0.2,0.4,0.6,0.6,1,0.6c0.6,0,1,0,1.4,0.3c0.1,0.1,0.2,0.1,0.3,0.1c0.6,0.2,0.8,0.3,1.1,0.6
		c0.3,0.3,0.5,0.6,0.7,0.9c-0.2,0.3-0.4,0.6-0.7,0.9c-0.3,0.3-0.6,0.4-1.1,0.6L90.2,59c-0.5,0.2-0.7,0.2-1,0.2
		c-0.4,0-0.7,0.2-0.9,0.5c-0.2,0.3-0.3,0.7-0.2,1c0.2,0.5,0.2,1,0.2,1.7c0,0.4,0,0.9-0.1,1c-0.1,0.1-0.2,0.2-0.2,0.3
		c-0.1-0.1-0.2-0.2-0.2-0.3c-0.6-0.6-1.4-1.1-2.1-1.4c-0.7-0.3-1.6-0.5-2.4-0.5c-0.2,0-0.4,0-0.6,0c1-1.1,1.7-2.5,1.7-4.1
		c0-1.8-0.7-3.4-1.9-4.5c0.3,0,0.5,0,0.8,0C84.1,52.9,84.7,52.9,85.5,52.7z M71.5,41.1c1.7,0,3.1,1,3.7,2.6c0.2,0.6,0.8,0.9,1.4,0.7
		c0.6-0.2,1.2-0.4,1.6-0.4c1,0,2.1,0.5,2.8,1.3c0.6,0.6,0.9,1.4,1,2.1c-0.6,0.3-1.2,0.7-1.7,1.2c-0.5,0.5-1,1-1.3,1.6
		c-0.2,0.3-0.1,0.7,0,1c-0.3-0.1-0.7-0.1-1.1-0.1c-1.6,0-3,0.6-4.1,1.7c-0.8-0.7-1.3-1.8-1.3-3.1c0-2.9-2.2-5.4-5-5.9
		C68.1,42.3,69.6,41.1,71.5,41.1z"/>
	<path class="st0" d="M148.9,74.7c-3.6,0-6.2,1.9-6.2,4.5c0,2.5,2.7,4.5,6.2,4.5c3.5,0,6.2-2,6.2-4.5
		C155.2,76.5,152.6,74.7,148.9,74.7z M148.9,81.4c-2.4,0-4-1.2-4-2.3c0-1.3,1.7-2.3,4-2.3c2.3,0,4,1,4,2.3
		C153,80.2,151.3,81.4,148.9,81.4z"/>
	<path class="st0" d="M134.9,78.1l-9.2-4.3c-0.3-0.1-0.6-0.1-0.9,0l-9.2,4.3c-0.4,0.2-0.6,0.6-0.6,1c0,0.4,0.3,0.8,0.7,1l9.2,4
		c0.1,0.1,0.3,0.1,0.4,0.1c0.2,0,0.3,0,0.4-0.1l9.2-4c0.4-0.2,0.7-0.6,0.7-1C135.5,78.7,135.3,78.3,134.9,78.1z M125.2,82l-6.5-2.9
		l6.5-3l6.5,3L125.2,82z"/>
	<path class="st0" d="M167.5,75.1c-0.3-0.2-0.7-0.3-1.1-0.1l-7.2,3.1c-0.4,0.2-0.7,0.6-0.7,1c0,0.4,0.3,0.8,0.6,1l6.9,3.1
		c0.1,0.1,0.3,0.1,0.5,0.1c0.2,0,0.4-0.1,0.6-0.2c1.5-0.9,2.3-2.4,2.3-4.1C169.5,77.6,168.8,76.1,167.5,75.1z M166.5,81l-4.1-1.8
		l4.2-1.8c0.4,0.5,0.7,1.2,0.7,1.8C167.3,79.9,167,80.5,166.5,81z"/>
	<path class="st0" d="M92.3,78.1L85.4,75c-0.3-0.1-0.7-0.1-1,0.1c-1.5,0.9-2.3,2.4-2.3,4.1s0.8,3.2,2.3,4.1c0.2,0.1,0.4,0.2,0.6,0.2
		c0.2,0,0.3,0,0.5-0.1l6.9-3.1c0.4-0.2,0.6-0.6,0.6-1C93,78.7,92.7,78.3,92.3,78.1z M85.1,81c-0.5-0.5-0.8-1.1-0.8-1.9
		s0.3-1.4,0.8-1.9l4.1,1.9L85.1,81z"/>
	<path class="st0" d="M82.7,73.3h85c0.6,0,1.1-0.5,1.1-1.1s-0.5-1.1-1.1-1.1h-85c-0.6,0-1.1,0.5-1.1,1.1S82.1,73.3,82.7,73.3z"/>
	<path class="st0" d="M101.7,74.7c-3.6,0-6.2,1.9-6.2,4.5c0,2.5,2.7,4.5,6.2,4.5c3.5,0,6.2-2,6.2-4.5
		C108,76.5,105.4,74.7,101.7,74.7z M101.7,81.4c-2.4,0-4-1.2-4-2.3c0-1.3,1.7-2.3,4-2.3c2.3,0,4,1,4,2.3
		C105.8,80.2,104.1,81.4,101.7,81.4z"/>
</g>
</svg>
